<?xml version="1.0" encoding="utf-8"?><svg width="48px" height="48px" viewBox="0 0 48 48" version="1.1" xmlns:xlink="http://www.w3.org/1999/xlink" xmlns="http://www.w3.org/2000/svg"><defs><path d="M48 0L48 0L48 48L0 48L0 0L48 0Z" id="path_1" /><clipPath id="clip_1"><use xlink:href="#path_1" clip-rule="evenodd" fill-rule="evenodd" /></clipPath></defs><g id="Done"><path d="M48 0L48 0L48 48L0 48L0 0L48 0Z" id="Done" fill="none" stroke="none" /><path d="M39.7781 16.875C39.6844 16.7625 39.6375 16.6125 39.6375 16.4719C38.25 14.025 38.1656 11.0344 36.7781 8.5875C32.8687 10.7813 30.1969 14.6906 27.6469 18.2531C26.1094 20.4 24.7313 22.6031 23.4656 24.9187C22.1906 27.2437 20.9531 29.5969 19.5281 31.8375C19.3219 32.1562 18.7875 32.3062 18.5625 31.9031C17.8875 30.6562 17.1281 29.4469 16.2562 28.3219C15.5062 27.3562 14.6531 26.4937 13.8844 25.5469C12.6937 24.075 11.4187 22.3125 9.76875 21.2906C9.16875 23.2594 8.46562 25.2094 8.15625 27.2531C10.4625 28.7437 12.225 30.9 13.9219 33.0281C15.9094 35.5219 17.9625 37.9031 20.1937 40.1812C21.6375 38.2969 22.6312 36.1031 23.8312 34.0594C25.2469 31.65 26.8969 29.4281 28.65 27.2531C30.4031 25.0781 32.4281 23.1562 34.4625 21.2625C35.4188 20.3719 36.5438 19.6406 37.5656 18.825C38.3344 18.2062 39.0844 17.5687 39.7875 16.8844C39.7875 16.8937 39.7875 16.8844 39.7781 16.875L39.7781 16.875Z" id="Shape" fill="#120CDA" stroke="none" clip-path="url(#clip_1)" /><path d="M40.8938 15.9656L40.6313 15.9656C39.1031 13.3688 39.1125 10.0969 37.4438 7.5375C37.2656 7.25625 36.9375 7.24688 36.6656 7.3875C32.3906 9.55313 29.5219 13.7344 26.8031 17.5219C25.2469 19.6969 23.8406 21.9281 22.5469 24.2719C21.3938 26.3625 20.2875 28.4719 19.0406 30.5156C18.4781 29.5406 17.8594 28.6031 17.175 27.7125C16.4063 26.7 15.5063 25.8094 14.7094 24.825C13.2844 23.0719 11.7656 20.9906 9.675 19.9969C9.32813 19.8281 8.98125 20.0438 8.87813 20.3906C8.24063 22.6125 7.39688 24.7969 7.05 27.0844C7.05 27.0938 7.05 27.1031 7.05 27.1219C6.8625 27.375 6.84375 27.7875 7.2 28.0031C9.68438 29.4656 11.5125 31.8281 13.2844 34.0594C15.3469 36.6563 17.5219 39.1313 19.8656 41.475C20.0813 41.6906 20.4656 41.6438 20.6531 41.4281C22.2656 39.4969 23.3438 37.2094 24.5719 35.0344C25.95 32.6063 27.5719 30.3188 29.3625 28.1719C31.1625 26.025 33.1125 24.075 35.1656 22.1719C36.1406 21.2625 37.2844 20.5125 38.3344 19.6781C39.1781 19.0031 39.9938 18.3 40.7625 17.5406C40.9781 17.4937 41.1563 17.3438 41.1938 17.1C41.25 17.0437 41.3063 16.9781 41.3625 16.9219C41.7188 16.5094 41.3625 15.9656 40.8938 15.9656L40.8938 15.9656ZM37.5656 18.8438C36.5438 19.6594 35.4281 20.3906 34.4625 21.2813C32.4188 23.175 30.3938 25.0969 28.65 27.2719C26.8969 29.4469 25.2469 31.6594 23.8313 34.0781C22.6313 36.1219 21.6375 38.3156 20.1938 40.2C17.9625 37.9312 15.9 35.5406 13.9219 33.0469C12.225 30.9188 10.4531 28.7531 8.15625 27.2719C8.46563 25.2281 9.16875 23.2781 9.76875 21.3094C11.4281 22.3312 12.6938 24.0938 13.8844 25.5656C14.6531 26.5125 15.5063 27.375 16.2563 28.3406C17.1281 29.4656 17.8875 30.675 18.5625 31.9219C18.7875 32.3344 19.3219 32.175 19.5281 31.8563C20.9625 29.6156 22.1906 27.2625 23.4656 24.9375C24.7313 22.6219 26.1094 20.4188 27.6469 18.2719C30.1969 14.7094 32.8781 10.7906 36.7781 8.60625C38.1656 11.0531 38.25 14.0437 39.6375 16.4906C39.6375 16.6313 39.6844 16.7813 39.7781 16.8937C39.7781 16.9031 39.7875 16.9125 39.7875 16.9125C39.0844 17.5875 38.3344 18.225 37.5656 18.8438L37.5656 18.8438Z" id="Shape" fill="#000000" fill-rule="evenodd" stroke="none" clip-path="url(#clip_1)" /></g></svg>